PathFileType	4	(X/Y/Z)	RBDS05\RBDS05runT45.trc
DataRate	CameraRate	NumFrames	NumMarkers	Units	OrigDataRate	OrigDataStartFrame	OrigNumFrames
150.000000	150.000000	4	32	mm	150.000000	2250	4500
Frame#	Time	L.ASIS			L.Heel.Bottom			L.Heel.Lateral			L.Heel.Top			L.Iliac.Crest			L.MT1			L.MT5			L.PSIS			L.Shank.Bottom.Lateral			L.Shank.Bottom.Medial			L.Shank.Top.Lateral			L.Shank.Top.Medial			L.Thigh.Bottom.Lateral			L.Thigh.Bottom.Medial			L.Thigh.Top.Lateral			L.Thigh.Top.Medial			R.ASIS			R.ASY			R.Heel.Bottom			R.Heel.Lateral			R.Heel.Top			R.Iliac.Crest			R.MT5			R.PSIS			R.Shank.Bottom.Lateral			R.Shank.Bottom.Medial			R.Shank.Top.Lateral			R.Shank.Top.Medial			R.Thigh.Bottom.Lateral			R.Thigh.Bottom.Medial			R.Thigh.Top.Lateral			R.Thigh.Top.Medial			
		X1	Y1	Z1	X2	Y2	Z2	X3	Y3	Z3	X4	Y4	Z4	X5	Y5	Z5	X6	Y6	Z6	X7	Y7	Z7	X8	Y8	Z8	X9	Y9	Z9	X10	Y10	Z10	X11	Y11	Z11	X12	Y12	Z12	X13	Y13	Z13	X14	Y14	Z14	X15	Y15	Z15	X16	Y16	Z16	X17	Y17	Z17	X18	Y18	Z18	X19	Y19	Z19	X20	Y20	Z20	X21	Y21	Z21	X22	Y22	Z22	X23	Y23	Z23	X24	Y24	Z24	X25	Y25	Z25	X26	Y26	Z26	X27	Y27	Z27	X28	Y28	Z28	X29	Y29	Z29	X30	Y30	Z30	X31	Y31	Z31	X32	Y32	Z32	

2251	15	2286.195738606693	929.3385664748123	926.4366149319042	1586.917932637283	532.8129222898023	1058.155818525876	1586.725557172863	502.5319979947994	1010.833610248393	1631.098872362548	514.6078977921908	1044.807342015878	2246.523208662295	1011.238086781124	898.4478512452002	1578.444608492561	325.861327348448	1076.096913950126	1546.512117607362	363.0526176166574	983.2555323854223	2140.485935480683	993.5503280700455	1001.333014515544	1698.258509823723	472.1251055999878	965.1061541172506	1696.267297406472	508.818961271392	1001.013706146696	1771.524580652126	496.2196734884667	940.2345380039245	1773.249146929942	534.6670193719572	976.7421389870699	2066.683010758643	622.7826948033073	879.2813319646322	2014.992954835699	639.6121050866757	928.4310390538996	2095.144317272175	729.7377670406743	879.5960309145984	2051.948054108593	743.5910457785272	931.2600299009226	2289.65425759249	953.1400040785193	1142.057696426519	-34066588466.00387	-2514785395.512356	6071370203.613192	2463.610989317016	24.00674233438103	1077.956369750978	2484.36957761356	46.76985890164666	1116.395502316657	2448.286582430481	68.72158942986965	1084.128282354997	2237.16986437225	1006.233833770058	1182.860629062208	2622.661173352381	115.449178894556	1134.325315076338	2145.786938885331	995.6278602356308	1090.591801896686	2446.07102109963	195.6308328197352	1139.177678907325	2407.396350313822	181.7998107237424	1102.795847016367	2406.244318091437	265.403520025328	1152.545343561449	2370.074069986439	251.701782101221	1114.30098410988	2335.736020357364	582.5600015108116	1181.619096122327	2273.830285660074	556.0402129176072	1152.424442270986	2283.076145385613	678.2434656932194	1200.907162530149	2224.943950084805	653.0302276149839	1171.562074445552	
2252	15.00666666666667	2288.026921171663	925.6076529133483	927.6591898296823	1600.306380017677	545.3282090429	1060.740119754638	1598.400587602672	515.1939157479521	1013.125278644831	1643.49752898354	525.1177108269491	1046.790100655832	2248.586756243361	1006.987134498404	898.771876872406	1582.288925127467	338.3909087912085	1077.18731074476	1551.521542467743	377.7216040124584	984.8204546972926	2140.974268293052	988.5643343555817	1000.517449558099	1707.421114792202	478.8264181007336	965.9856163702015	1707.461344744664	515.7759880336981	1001.567107496497	1781.30692305824	499.297325449706	940.087074471259	1785.16934807509	537.9101299762527	976.2337081280526	2073.616763048868	615.2991490408767	877.447384600025	2021.567579580078	630.6354246859308	926.784143072972	2099.869011123847	722.8245341095459	878.6027962052327	2055.989154275537	735.4755101157081	930.0489716410515	2288.504098414759	949.8203894789139	1143.796696359557	-34136445162.25769	-2519940994.401058	6083819905.24292	2444.614282355914	21.84793859030077	1076.730880925373	2466.056887384176	43.41416161512269	1115.314826865334	2432.194998914327	66.89730811828872	1082.330477462664	2235.192115834602	1002.290898678934	1183.472172231851	2606.553840669207	103.7388849562267	1134.942949306037	2144.721623188799	990.9602116754874	1089.817858076039	2434.983310118368	189.5738336522664	1137.889874738152	2396.106545236652	177.3898433845142	1101.326649404914	2397.921511737447	260.5921868103395	1151.525911254126	2361.430839483541	248.4353958210803	1113.146292755774	2334.712895589359	579.2948317447064	1181.323309100551	2273.09078586422	552.5964454566799	1151.790420191822	2281.578572691846	674.6785384606856	1200.444153342439	2223.727362096637	649.2959085851811	1170.792506779174	
2253	15.01333333333333	2289.685816744762	921.4841008678975	928.9403429770962	1615.013653049337	556.1784364549594	1062.697650414905	1611.637368372282	526.2799882264726	1014.790087653991	1657.244699348904	534.1617036638164	1048.317300375553	2250.50108718236	1002.295426912635	899.059550401429	1588.164545763344	349.657389578881	1077.736926577589	1558.730667948513	390.9267468308886	985.7292425196987	2141.304046704057	983.2287809621713	999.6659555985019	1718.05503865698	484.3456937727846	966.4894344685811	1720.083386692341	521.4412211090695	1001.76445071238	1792.40425717822	501.2408859239021	939.6816673627709	1798.353200769145	539.8909329939498	975.4912817968459	2081.093101904576	607.1049782968403	875.6446291487269	2028.513085665546	620.9067457727913	924.9482229223931	2104.910143094172	715.1965480904767	877.5122545194366	2060.163316019445	726.6401385294438	928.5476763235461	2287.202980023515	946.1809716170795	1145.634540644057	-34206397291.67101	-2525103634.877125	6096286614.486011	2422.176614978046	20.28415756006626	1075.516234229641	2444.478141785505	40.49538825373224	1114.207001769564	2413.174448155917	65.72837183074215	1080.384295211872	2233.073371571005	997.7890829706988	1184.188481275774	2587.635475119935	91.13463033595711	1135.585231375649	2143.440462850864	985.995487597535	1088.966537494148	2422.315435293968	183.5356933817621	1136.533629923118	2383.089458023582	173.3705448665163	1099.929543831033	2388.677640524465	255.9779428835986	1150.552639501584	2351.701173327748	245.7279676677813	1112.203748562142	2334.196263093812	576.2684875678573	1181.106442842301	2272.897394541939	549.2088355291603	1151.342601350651	2280.385581123087	671.2267806915205	1200.037713402243	2222.816791372912	645.4884772297131	1170.202841485586	
2254	15.02	2291.112919598705	917.0303479744492	930.2596479168719	1630.783630594721	565.3465766213327	1063.857541216232	1626.207599647957	535.6897114794914	1015.706186054077	1672.130188413788	541.7387844702913	1049.25926023152	2252.196847278749	997.1695416840341	899.2717046945453	1596.001328350432	359.5835562882865	1077.845828897254	1568.027911622856	402.4290560460036	986.0277598062326	2141.421356972099	977.6205110252972	998.7654679108693	1730.067375565432	488.6452574169866	966.5844412743933	1734.009984244965	525.813308484791	1001.554650716757	1804.75191379749	502.0431583741	939.0068392822872	1812.70683204929	540.6332319642264	974.4918164894766	2089.118444785576	598.3448312862949	873.9141845210476	2035.849212224676	610.5594315750941	922.9571325221148	2110.270225169762	706.9851816939674	876.3648173962498	2064.499393431949	717.1966984324885	926.8076111974063	2285.741870449012	942.3136631953162	1147.536272490349	-34276444919.38625	-2530273321.746039	6108770342.951628	2397.061876204469	19.41866621867701	1074.398885864353	2420.349843653788	38.20889994119433	1113.139583140386	2391.758257095076	65.26740026202407	1078.424706109916	2230.7993721861	992.7901459645981	1184.994427514486	2566.383391027241	78.51477741075949	1136.146170018709	2141.926063740725	980.8367202719031	1088.015846800582	2408.356375818134	177.8593151965491	1135.19489027931	2368.640568652095	170.0125278339349	1098.73974755655	2378.698591423311	251.7887915815032	1149.70843903476	2341.089274978759	243.7420421345459	1111.590216789651	2334.037592627973	573.4759715612831	1181.066868100112	2273.084884977431	545.9262631922655	1151.140070379711	2279.419658359662	667.9330743573724	1199.78541044704	2222.115714478985	641.697477388229	1169.875876425534	
